HIERARCHY
ROOT Hips
{
	OFFSET 0.000000 0.000000 0.000000 
	CHANNELS 6 Xposition Yposition Zposition Zrotation Xrotation Yrotation
	JOINT Spine
	{
		OFFSET -0.000000 8.061080 0.000000 
		CHANNELS 3 Zrotation Xrotation Yrotation
		JOINT Spine1
		{
			OFFSET -0.000000 20.532677 0.000000 
			CHANNELS 3 Zrotation Xrotation Yrotation
			JOINT Neck
			{
				OFFSET -0.000000 22.498795 0.000000 
				CHANNELS 3 Zrotation Xrotation Yrotation
				JOINT Head
				{
					OFFSET -0.000000 15.237408 1.966117 
					CHANNELS 3 Zrotation Xrotation Yrotation
					End Site
					{
						OFFSET -0.000000 19.661171 0.000000 
					}
				}
			}
			JOINT LeftShoulder
			{
				OFFSET 3.894675 16.042269 -0.398189 
				CHANNELS 3 Zrotation Xrotation Yrotation
				JOINT LeftArm
				{
					OFFSET 19.709621 0.000000 0.000000 
					CHANNELS 3 Zrotation Xrotation Yrotation
					JOINT LeftForeArm
					{
						OFFSET 25.566900 0.000000 0.000000 
						CHANNELS 3 Zrotation Xrotation Yrotation
						JOINT LeftHand
						{
							OFFSET 25.401896 0.000000 0.000000 
							CHANNELS 3 Zrotation Xrotation Yrotation
							End Site
							{
								OFFSET 14.745877 0.000000 0.000000 
							}
						}
					}
				}
			}
			JOINT RightShoulder
			{
				OFFSET -3.930777 16.042269 -0.398189 
				CHANNELS 3 Zrotation Xrotation Yrotation
				JOINT RightArm
				{
					OFFSET -19.709621 0.000000 0.000000 
					CHANNELS 3 Zrotation Xrotation Yrotation
					JOINT RightForeArm
					{
						OFFSET -25.566900 0.000000 0.000000 
						CHANNELS 3 Zrotation Xrotation Yrotation
						JOINT RightHand
						{
							OFFSET -25.401896 0.000000 0.000000 
							CHANNELS 3 Zrotation Xrotation Yrotation
							End Site
							{
								OFFSET -14.745877 0.000000 0.000000 
							}
						}
					}
				}
			}
		}
	}
	JOINT LeftUpLeg
	{
		OFFSET 9.830585 0.000000 0.000000 
		CHANNELS 3 Zrotation Xrotation Yrotation
		JOINT LeftLeg
		{
			OFFSET -0.000000 -46.474842 0.000000 
			CHANNELS 3 Zrotation Xrotation Yrotation
			JOINT LeftFoot
			{
				OFFSET -0.000000 -30.290520 0.000000 
				CHANNELS 3 Zrotation Xrotation Yrotation
				JOINT LeftToeBase
				{
					OFFSET -0.000000 -6.389880 14.745877 
					CHANNELS 3 Zrotation Xrotation Yrotation
					End Site
					{
						OFFSET -0.000000 0.000000 3.932234 
					}
				}
			}
		}
	}
	JOINT RightUpLeg
	{
		OFFSET -9.830585 0.000000 0.000000 
		CHANNELS 3 Zrotation Xrotation Yrotation
		JOINT RightLeg
		{
			OFFSET -0.000000 -46.474842 0.000000 
			CHANNELS 3 Zrotation Xrotation Yrotation
			JOINT RightFoot
			{
				OFFSET -0.000000 -30.290520 0.000000 
				CHANNELS 3 Zrotation Xrotation Yrotation
				JOINT RightToeBase
				{
					OFFSET -0.000000 -6.389880 14.745877 
					CHANNELS 3 Zrotation Xrotation Yrotation
					End Site
					{
						OFFSET -0.000000 0.000000 3.932234 
					}
				}
			}
		}
	}
}
MOTION
Frames: 18
Frame Time: 0.010000
-12.778271 84.908371 13.526240 3.372652 2.510824 -18.498188 2.944670 -5.211331 -0.140533 0.798150 -0.677653 -0.088738 2.296111 11.174873 -3.263706 4.774581 17.310045 -4.156010 2.766565 12.691510 2.908745 -70.825340 21.961065 -22.062183 -10.705178 0.225664 -7.999484 4.970716 -0.231428 6.759846 -8.201567 9.466134 -10.786114 54.265541 54.541519 36.685627 6.087342 -9.376303 7.586334 -5.080655 -9.980908 4.716344 9.671471 -1.747824 4.979412 0.814409 2.761184 6.274934 -3.162065 0.829801 1.962034 0.000000 0.000000 0.000000 -6.154362 -4.911358 10.784652 13.182969 16.992994 -12.085962 -8.740833 -9.054877 -3.298748 0.000000 0.000000 0.000000 
-12.695419 84.918785 13.757103 3.415984 2.474704 -19.298630 3.074396 -5.026721 0.065417 0.638721 -0.783988 -0.022239 2.340962 11.188488 -3.234830 4.761856 17.346701 -4.113493 2.983201 12.551105 2.766254 -70.902008 22.146524 -21.997976 -10.747138 0.154386 -7.990760 4.870288 -0.318384 6.580081 -8.145576 9.447578 -10.860308 54.164310 54.663589 36.800911 6.000552 -9.485118 7.545556 -5.011603 -10.076628 4.663017 9.705133 -1.907943 4.695862 0.678494 2.368552 6.114922 -3.089483 1.131824 2.073471 0.000000 0.000000 0.000000 -6.296255 -4.917153 11.102395 13.061269 17.102978 -11.372192 -8.569749 -9.110838 -3.379356 0.000000 0.000000 0.000000 
-12.636683 84.935318 14.006733 3.395639 2.449199 -19.993288 2.929423 -4.826845 0.060268 1.057560 -0.995771 -0.015436 2.050212 11.329833 -3.096201 4.811920 17.415312 -4.051790 2.585600 12.818483 2.811777 -70.867630 21.387869 -21.567966 -10.960736 0.783945 -8.957667 4.917655 0.232126 7.210785 -8.303273 9.556320 -10.761704 53.695023 54.791302 37.258057 6.007823 -9.578272 7.364248 -5.042505 -10.169558 4.838820 9.767471 -2.099909 4.336576 0.670360 2.035337 5.972968 -3.140062 1.432641 2.104827 0.000000 0.000000 0.000000 -6.330360 -4.870780 11.428945 13.083608 17.000484 -11.334698 -8.733195 -8.911449 -3.260951 0.000000 0.000000 0.000000 
-12.550142 84.940941 14.252928 3.451393 2.390888 -20.775999 2.964143 -4.605075 0.200962 1.002081 -1.135321 0.035244 2.146079 11.386549 -3.090589 4.587851 17.423620 -3.960881 2.785990 12.802189 2.849724 -70.713127 22.396328 -22.435705 -10.748072 0.213715 -7.827236 4.500356 -0.263771 6.613446 -8.335464 9.595565 -10.738765 53.849087 54.590736 37.133118 6.075090 -9.465237 7.454922 -4.928635 -10.058027 4.768664 9.716934 -2.302873 4.173028 0.708870 1.778983 5.700994 -3.226921 1.690161 2.126629 0.000000 0.000000 0.000000 -6.465971 -4.933915 11.622062 12.975068 17.189568 -11.514411 -8.560285 -8.950035 -2.524478 0.000000 0.000000 0.000000 
-12.452915 84.962166 14.490646 3.486305 2.413124 -21.590870 3.019553 -4.502950 0.341602 0.999008 -1.175999 0.083204 2.113029 11.376712 -3.022163 4.524344 17.457172 -3.881829 2.787427 12.683405 2.850398 -70.660431 22.616886 -22.433506 -10.725648 0.162600 -7.856325 4.462178 -0.321701 6.522084 -8.312669 9.578654 -10.694800 53.874851 54.459476 37.124271 6.043678 -9.422492 7.416174 -4.889522 -10.010330 4.783133 9.649894 -2.611503 4.071187 0.909756 1.596756 5.459077 -3.434858 1.962691 2.070306 0.000000 0.000000 0.000000 -6.541049 -4.982739 11.836304 12.792392 17.204386 -10.715341 -8.558441 -8.825187 -2.751778 0.000000 0.000000 0.000000 
-12.332628 84.980629 14.710699 3.569637 2.414464 -22.475500 3.191551 -4.468687 0.610935 0.680916 -1.046834 0.166262 2.208656 11.346031 -2.970042 4.525974 17.351887 -3.802786 2.987206 12.472814 2.626209 -70.631447 22.609591 -22.323572 -10.778401 0.221878 -7.961778 4.699365 -0.259852 6.590940 -8.200117 9.467621 -10.725925 53.857822 54.414692 37.201981 6.066518 -9.416583 7.380751 -4.874347 -10.001985 4.749005 9.620375 -2.879632 3.798005 0.838263 1.342101 5.312516 -3.475857 2.272944 2.162916 0.000000 0.000000 0.000000 -6.680730 -5.120662 12.110135 12.688562 17.320835 -10.305592 -8.569033 -8.770436 -2.663783 0.000000 0.000000 0.000000 
-12.227084 84.993378 14.981373 3.602289 2.357745 -23.262558 3.198787 -4.232173 0.731346 0.692051 -1.191213 0.209718 2.204388 11.311566 -2.904446 4.407593 17.463963 -3.708142 2.965038 12.475343 2.679921 -70.489471 21.563532 -21.585155 -11.787267 0.908658 -9.332090 4.820614 0.247151 7.221170 -8.189160 9.502394 -10.667531 53.733620 54.389572 37.301144 6.075633 -9.477608 7.393348 -4.825413 -10.061577 4.735623 9.565488 -3.084238 3.596421 0.886761 1.131051 5.021258 -3.618350 2.526289 2.182740 0.000000 0.000000 0.000000 -6.821521 -5.146379 12.261996 12.541051 17.455381 -9.916615 -8.441710 -8.719828 -2.405096 0.000000 0.000000 0.000000 
-12.089598 85.000862 15.253788 3.653352 2.299649 -24.133774 3.108520 -3.991138 0.919327 0.908748 -1.361598 0.279073 2.050472 11.335485 -2.798238 4.341856 17.524614 -3.617849 2.806956 12.466083 2.646163 -70.529526 22.785196 -22.348719 -10.743285 0.213302 -8.055884 4.323003 -0.299162 6.518213 -8.277323 9.523931 -10.621819 53.546680 54.411808 37.394688 6.083486 -9.559579 7.407695 -4.810585 -10.144677 4.750971 9.456579 -3.268939 3.374171 0.979781 0.899485 4.825457 -3.787800 2.777096 2.183645 0.000000 0.000000 0.000000 -7.000741 -5.252973 12.449322 12.434866 17.673519 -9.886500 -8.288002 -8.723889 -1.789141 0.000000 0.000000 0.000000 
-11.949213 85.001579 15.531607 3.646506 2.251487 -25.018270 3.400988 -3.801283 1.137196 0.530242 -1.392005 0.345852 2.176790 11.337317 -2.734909 4.209920 17.489355 -3.485130 2.908889 12.582536 2.769285 -70.325905 22.756186 -22.655268 -10.855914 0.196280 -8.068069 4.354113 -0.321780 6.564756 -8.203150 9.464111 -10.531516 53.701962 54.400467 37.327068 6.020012 -9.582733 7.332791 -4.791556 -10.160100 4.776131 9.411164 -3.427752 3.132737 1.055826 0.675158 4.643082 -3.966488 2.976061 2.171922 0.000000 0.000000 0.000000 -7.117533 -5.254824 12.644233 12.267836 17.743574 -9.016649 -8.290155 -8.675617 -1.993282 0.000000 0.000000 0.000000 
-11.791679 85.010582 15.821961 3.702425 2.206143 -25.939320 3.482207 -3.652873 1.390805 0.402469 -1.391801 0.429333 2.105537 11.256102 -2.635569 4.304610 17.589138 -3.430564 2.976212 12.530683 2.747002 -70.286713 22.820286 -22.731176 -10.877043 0.219431 -8.071946 4.382411 -0.301501 6.498791 -8.186418 9.441918 -10.516829 53.560532 54.413090 37.479092 6.033080 -9.641201 7.311654 -4.747245 -10.218021 4.816252 9.224766 -3.694154 2.984151 1.318681 0.665320 4.452097 -4.258541 3.114489 2.088433 0.000000 0.000000 0.000000 -7.310866 -5.402369 12.860326 12.157877 17.972734 -8.985873 -8.133615 -8.658752 -1.360398 0.000000 0.000000 0.000000 
-11.626206 85.019447 16.120459 3.763030 2.161972 -26.889547 3.494994 -3.501109 1.643614 0.399384 -1.422362 0.515020 2.083483 11.268675 -2.586264 4.162413 17.575489 -3.344493 2.957850 12.292014 2.592957 -70.396935 22.866913 -22.390083 -10.807871 0.102141 -8.212582 4.741906 -0.405043 6.542690 -8.210718 9.429859 -10.464691 53.426670 54.380688 37.593540 6.066202 -9.658856 7.298603 -4.752341 -10.237178 4.814510 9.104310 -3.879170 2.735355 1.371234 0.489018 4.291395 -4.410252 3.333104 2.109843 0.000000 0.000000 0.000000 -7.513166 -5.533210 13.131141 12.068480 18.150934 -8.509202 -8.112947 -8.608332 -1.239631 0.000000 0.000000 0.000000 
-11.451346 85.034966 16.405752 3.842362 2.106177 -27.876287 3.463635 -3.308128 1.901603 0.398334 -1.498248 0.603587 2.064194 11.251749 -2.481058 4.054816 17.534794 -3.209367 2.621064 12.748519 2.774369 -69.886406 22.650772 -22.998981 -10.854144 0.129617 -8.203421 4.384621 -0.404427 6.439413 -8.282304 9.378920 -10.384113 53.307961 54.499954 37.717045 6.038839 -9.749308 7.292170 -4.738473 -10.322111 4.747665 8.989095 -4.059394 2.404309 1.347091 0.302457 4.208452 -4.506721 3.608408 2.174484 0.000000 0.000000 0.000000 -7.718927 -5.668376 13.408989 11.871634 18.427280 -7.316939 -8.086635 -8.676229 -1.726676 0.000000 0.000000 0.000000 
-11.266930 85.050705 16.709080 3.927179 2.074197 -28.865896 3.580644 -3.113866 2.197891 0.135999 -1.614360 0.699920 2.080449 11.230384 -2.433507 4.045057 17.663523 -3.158558 2.956090 12.421506 2.674337 -70.209717 22.790569 -22.628649 -10.843699 -0.018247 -8.290461 4.371446 -0.556973 6.532878 -8.174413 9.382921 -10.351483 53.222397 54.397415 37.820938 6.143832 -9.701053 7.197514 -4.870196 -10.286318 4.876720 8.849656 -4.266092 2.168775 1.377973 0.149726 4.051898 -4.623786 3.864520 2.207677 0.000000 0.000000 0.000000 -7.932691 -5.780415 13.726483 11.764396 18.365158 -6.864577 -8.168463 -8.439831 -1.645106 0.000000 0.000000 0.000000 
-11.103554 85.057129 17.055920 3.926801 2.020339 -29.720650 3.615950 -2.940017 2.297765 0.102778 -1.671354 0.734233 2.011164 11.304297 -2.336684 3.997989 17.584745 -3.057580 3.013128 12.323439 2.793170 -70.351921 22.825155 -22.506346 -10.847041 0.134097 -8.313724 4.456419 -0.403125 6.509209 -8.220139 9.398610 -10.232966 52.842667 54.609291 38.213947 6.069914 -9.817315 7.186060 -4.689602 -10.386503 4.799945 8.771961 -4.430609 1.896948 1.397680 0.065129 3.790554 -4.738705 4.012439 2.218440 0.000000 0.000000 0.000000 -8.072836 -5.836870 14.027221 11.543574 18.546089 -6.564125 -7.963640 -8.448296 -1.324153 0.000000 0.000000 0.000000 
-10.915736 85.070915 17.390734 3.978516 1.975710 -30.693298 3.670935 -2.812750 2.551939 -0.040503 -1.674214 0.817704 2.011842 11.278147 -2.242566 3.960121 17.602091 -2.950755 3.054335 12.271395 2.716460 -70.366516 22.829472 -22.419298 -10.809155 0.063896 -8.374358 4.496034 -0.473749 6.517716 -8.151265 9.388263 -10.210406 52.518990 54.637318 38.519028 6.130667 -9.831712 7.150445 -4.702396 -10.402126 4.771369 8.658274 -4.608025 1.637506 1.387218 -0.021972 3.622758 -4.804148 4.214765 2.255888 0.000000 0.000000 0.000000 -8.260281 -5.934888 14.346043 11.367684 18.611565 -6.265894 -7.934881 -8.381783 -1.035995 0.000000 0.000000 0.000000 
-10.701094 85.083092 17.725042 4.019141 1.968831 -31.750364 3.846365 -2.695429 2.877688 -0.336079 -1.596896 0.921993 2.118440 11.117930 -2.188890 3.843857 17.587431 -2.840677 3.177976 12.483621 2.927556 -70.277405 22.684633 -22.875538 -10.887665 0.126127 -8.350995 4.858130 -0.393378 6.541356 -8.116192 9.281180 -10.228523 52.277321 54.938217 38.950409 5.889471 -9.985862 6.850698 -4.533958 -10.524052 4.900359 8.564458 -4.786187 1.319848 1.383360 -0.114385 3.610659 -4.845754 4.406565 2.280750 0.000000 0.000000 0.000000 -8.454134 -6.026381 14.751543 11.219176 18.525671 -5.613542 -8.003268 -8.262283 -1.101905 0.000000 0.000000 0.000000 
-10.519991 85.090149 18.101643 4.015644 1.914051 -32.617237 3.930839 -2.616809 3.050249 -0.463039 -1.523145 0.978311 2.096779 11.171289 -2.148241 3.753631 17.501638 -2.774939 3.200942 12.485283 2.865112 -70.229027 22.727247 -22.879730 -10.944432 0.039737 -8.397346 4.854929 -0.491076 6.484555 -8.133276 9.272706 -10.153507 52.203716 54.783718 38.945709 6.091852 -9.834506 7.076627 -4.543891 -10.394562 4.833579 8.505757 -4.931633 1.016726 1.293694 -0.132773 3.368417 -4.827415 4.529605 2.331442 0.000000 0.000000 0.000000 -8.625813 -6.116513 15.018513 11.104991 18.700323 -5.616304 -7.962813 -8.215050 -0.559199 0.000000 0.000000 0.000000 
-10.336504 85.075493 18.437134 3.761225 1.741189 -33.422375 3.951568 -2.186673 3.139429 -0.328256 -1.536224 1.014516 2.005928 11.133789 -2.043147 3.732302 17.446529 -2.680423 3.149498 12.624925 2.947513 -70.213966 22.478371 -23.130617 -11.061045 0.153952 -8.370999 4.851946 -0.380093 6.556198 -8.217672 9.203063 -10.057739 51.705475 55.247707 39.497089 5.791980 -10.140472 6.835051 -4.392199 -10.664326 4.859057 8.613643 -4.896699 0.538663 1.192071 -0.062452 3.259136 -4.817579 4.531668 2.318155 0.000000 0.000000 0.000000 -8.623760 -5.909974 14.876910 10.746490 18.857450 -4.734691 -7.958495 -8.199821 -0.433764 0.000000 0.000000 0.000000 
